<svg width="20" height="21" viewBox="0 0 20 21" fill="none" xmlns="http://www.w3.org/2000/svg">
<path d="M5.61635 4.39535C5.21588 4.39535 4.88379 4.06326 4.88379 3.66279V0.732558C4.88379 0.332093 5.21588 0 5.61635 0C6.01681 0 6.34891 0.332093 6.34891 0.732558V3.66279C6.34891 4.06326 6.01681 4.39535 5.61635 4.39535Z" fill="#292D32"/>
<path d="M13.4303 4.39535C13.0298 4.39535 12.6978 4.06326 12.6978 3.66279V0.732558C12.6978 0.332093 13.0298 0 13.4303 0C13.8308 0 14.1629 0.332093 14.1629 0.732558V3.66279C14.1629 4.06326 13.8308 4.39535 13.4303 4.39535Z" fill="#292D32"/>
<path d="M6.10467 12.9418C5.9777 12.9418 5.85072 12.9125 5.73351 12.8637C5.60653 12.8149 5.50886 12.7465 5.41119 12.6586C5.23537 12.473 5.12793 12.2288 5.12793 11.9651C5.12793 11.8381 5.15723 11.7111 5.20607 11.5939C5.25491 11.4767 5.32328 11.3693 5.41119 11.2716C5.50886 11.1837 5.60653 11.1153 5.73351 11.0665C6.08514 10.92 6.52467 10.9981 6.79816 11.2716C6.97398 11.4572 7.08142 11.7111 7.08142 11.9651C7.08142 12.0237 7.07165 12.0921 7.06188 12.1604C7.05212 12.219 7.03258 12.2777 7.00328 12.3363C6.98374 12.3949 6.95444 12.4535 6.91537 12.5121C6.88607 12.5609 6.83723 12.6097 6.79816 12.6586C6.61258 12.8344 6.35863 12.9418 6.10467 12.9418Z" fill="#292D32"/>
<path d="M9.52313 12.9417C9.39615 12.9417 9.26918 12.9124 9.15197 12.8635C9.02499 12.8147 8.92732 12.7463 8.82964 12.6584C8.65383 12.4728 8.54639 12.2286 8.54639 11.9649C8.54639 11.8379 8.57569 11.711 8.62453 11.5938C8.67336 11.4765 8.74174 11.3691 8.82964 11.2714C8.92732 11.1835 9.02499 11.1151 9.15197 11.0663C9.5036 10.91 9.94313 10.9979 10.2166 11.2714C10.3924 11.457 10.4999 11.711 10.4999 11.9649C10.4999 12.0235 10.4901 12.0919 10.4803 12.1603C10.4706 12.2189 10.451 12.2775 10.4217 12.3361C10.4022 12.3947 10.3729 12.4533 10.3338 12.5119C10.3045 12.5607 10.2557 12.6096 10.2166 12.6584C10.031 12.8342 9.77708 12.9417 9.52313 12.9417Z" fill="#292D32"/>
<path d="M12.9421 12.9417C12.8151 12.9417 12.6881 12.9124 12.5709 12.8635C12.4439 12.8147 12.3463 12.7463 12.2486 12.6584C12.2095 12.6096 12.1704 12.5607 12.1314 12.5119C12.0923 12.4533 12.063 12.3947 12.0435 12.3361C12.0142 12.2775 11.9946 12.2189 11.9849 12.1603C11.9751 12.0919 11.9653 12.0235 11.9653 11.9649C11.9653 11.711 12.0728 11.457 12.2486 11.2714C12.3463 11.1835 12.4439 11.1151 12.5709 11.0663C12.9323 10.91 13.3621 10.9979 13.6356 11.2714C13.8114 11.457 13.9188 11.711 13.9188 11.9649C13.9188 12.0235 13.9091 12.0919 13.8993 12.1603C13.8895 12.2189 13.87 12.2775 13.8407 12.3361C13.8211 12.3947 13.7918 12.4533 13.7528 12.5119C13.7235 12.5607 13.6746 12.6096 13.6356 12.6584C13.45 12.8342 13.196 12.9417 12.9421 12.9417Z" fill="#292D32"/>
<path d="M6.10467 16.3602C5.9777 16.3602 5.85072 16.331 5.73351 16.2822C5.6163 16.2334 5.50886 16.1649 5.41119 16.077C5.23537 15.8914 5.12793 15.6375 5.12793 15.3835C5.12793 15.2565 5.15723 15.1295 5.20607 15.0123C5.25491 14.8854 5.32328 14.778 5.41119 14.6901C5.77258 14.3287 6.43677 14.3287 6.79816 14.6901C6.97398 14.8757 7.08142 15.1296 7.08142 15.3835C7.08142 15.6375 6.97398 15.8914 6.79816 16.077C6.61258 16.2528 6.35863 16.3602 6.10467 16.3602Z" fill="#292D32"/>
<path d="M9.52313 16.3602C9.26918 16.3602 9.01522 16.2528 8.82964 16.077C8.65383 15.8914 8.54639 15.6375 8.54639 15.3835C8.54639 15.2565 8.57569 15.1295 8.62453 15.0123C8.67336 14.8854 8.74174 14.778 8.82964 14.6901C9.19104 14.3287 9.85522 14.3287 10.2166 14.6901C10.3045 14.778 10.3729 14.8854 10.4217 15.0123C10.4706 15.1295 10.4999 15.2565 10.4999 15.3835C10.4999 15.6375 10.3924 15.8914 10.2166 16.077C10.031 16.2528 9.77708 16.3602 9.52313 16.3602Z" fill="#292D32"/>
<path d="M12.9421 16.3604C12.6881 16.3604 12.4342 16.2529 12.2486 16.0771C12.1607 15.9892 12.0923 15.8818 12.0435 15.7548C11.9946 15.6376 11.9653 15.5106 11.9653 15.3836C11.9653 15.2566 11.9946 15.1297 12.0435 15.0124C12.0923 14.8855 12.1607 14.778 12.2486 14.6901C12.4732 14.4655 12.8151 14.358 13.1277 14.4264C13.196 14.4362 13.2546 14.4557 13.3132 14.485C13.3718 14.5045 13.4304 14.5338 13.4891 14.5729C13.5379 14.6022 13.5867 14.6511 13.6356 14.6901C13.8114 14.8757 13.9188 15.1297 13.9188 15.3836C13.9188 15.6376 13.8114 15.8915 13.6356 16.0771C13.45 16.2529 13.196 16.3604 12.9421 16.3604Z" fill="#292D32"/>
<path d="M17.8255 8.39004H1.22084C0.820374 8.39004 0.488281 8.05795 0.488281 7.65748C0.488281 7.25702 0.820374 6.92493 1.22084 6.92493H17.8255C18.226 6.92493 18.558 7.25702 18.558 7.65748C18.558 8.05795 18.226 8.39004 17.8255 8.39004Z" fill="#292D32"/>
<path d="M13.4302 21H5.61628C2.05116 21 0 18.9488 0 15.3837V7.08137C0 3.51625 2.05116 1.46509 5.61628 1.46509H13.4302C16.9953 1.46509 19.0465 3.51625 19.0465 7.08137V15.3837C19.0465 18.9488 16.9953 21 13.4302 21ZM5.61628 2.9302C2.82279 2.9302 1.46512 4.28788 1.46512 7.08137V15.3837C1.46512 18.1772 2.82279 19.5349 5.61628 19.5349H13.4302C16.2237 19.5349 17.5814 18.1772 17.5814 15.3837V7.08137C17.5814 4.28788 16.2237 2.9302 13.4302 2.9302H5.61628Z" fill="#292D32"/>
</svg>
