<svg width="30" height="34" viewBox="0 0 30 34" fill="none" xmlns="http://www.w3.org/2000/svg">
<path d="M19.6155 18.0003H8.84623C8.21546 18.0003 7.69238 17.4772 7.69238 16.8465C7.69238 16.2157 8.21546 15.6926 8.84623 15.6926H19.6155C20.2462 15.6926 20.7693 16.2157 20.7693 16.8465C20.7693 17.4772 20.2462 18.0003 19.6155 18.0003Z" fill="#16498C"/>
<path d="M15.5847 24.1541H8.84623C8.21546 24.1541 7.69238 23.631 7.69238 23.0003C7.69238 22.3695 8.21546 21.8464 8.84623 21.8464H15.5847C16.2155 21.8464 16.7385 22.3695 16.7385 23.0003C16.7385 23.631 16.2155 24.1541 15.5847 24.1541Z" fill="#16498C"/>
<path d="M18.077 8.46154H11.9232C10.4462 8.46154 7.69238 8.46154 7.69238 4.23077C7.69238 0 10.4462 0 11.9232 0H18.077C19.5539 0 22.3078 0 22.3078 4.23077C22.3078 5.70769 22.3078 8.46154 18.077 8.46154ZM11.9232 2.30769C10.4001 2.30769 10.0001 2.30769 10.0001 4.23077C10.0001 6.15385 10.4001 6.15385 11.9232 6.15385H18.077C20.0001 6.15385 20.0001 5.75385 20.0001 4.23077C20.0001 2.30769 19.6001 2.30769 18.077 2.30769H11.9232Z" fill="#16498C"/>
<path d="M19.6154 33.0768H10.3846C1.73846 33.0768 0 29.1075 0 22.6921V13.4614C0 6.44603 2.53846 3.44603 8.78462 3.12295C9.4 3.09218 9.96923 3.56911 10 4.21526C10.0308 4.86141 9.53846 5.38449 8.90769 5.41526C4.53846 5.66141 2.30769 6.96911 2.30769 13.4614V22.6921C2.30769 28.3844 3.43077 30.7691 10.3846 30.7691H19.6154C26.5692 30.7691 27.6923 28.3844 27.6923 22.6921V13.4614C27.6923 6.96911 25.4615 5.66141 21.0923 5.41526C20.4615 5.38449 19.9692 4.83065 20 4.19988C20.0308 3.56911 20.5846 3.0768 21.2154 3.10757C27.4615 3.44603 30 6.44603 30 13.446V22.6768C30 29.1075 28.2615 33.0768 19.6154 33.0768Z" fill="#16498C"/>
</svg>
