<svg width="31" height="29" viewBox="0 0 31 29" fill="none" xmlns="http://www.w3.org/2000/svg">
<path d="M15.2956 19.8314C12.3503 19.8314 9.95996 17.441 9.95996 14.4958C9.95996 11.5505 12.3503 9.16016 15.2956 9.16016C18.2409 9.16016 20.6312 11.5505 20.6312 14.4958C20.6312 17.441 18.2409 19.8314 15.2956 19.8314ZM15.2956 11.2944C13.5313 11.2944 12.0942 12.7315 12.0942 14.4958C12.0942 16.2601 13.5313 17.6972 15.2956 17.6972C17.0599 17.6972 18.497 16.2601 18.497 14.4958C18.497 12.7315 17.0599 11.2944 15.2956 11.2944Z" fill="#292D32"/>
<path d="M19.8628 28.9942C19.564 28.9942 19.2652 28.9515 18.9664 28.8804C18.0842 28.6385 17.3443 28.0836 16.8748 27.301L16.7041 27.0165C15.8646 25.5652 14.7121 25.5652 13.8726 27.0165L13.7161 27.2868C13.2466 28.0836 12.5067 28.6527 11.6245 28.8804C10.7282 29.1223 9.80332 28.9942 9.02077 28.5247L6.57349 27.1161C5.70556 26.6181 5.07952 25.8071 4.80918 24.8253C4.55307 23.8435 4.68112 22.8333 5.17911 21.9654C5.59174 21.2398 5.70556 20.5853 5.46368 20.1726C5.2218 19.76 4.60998 19.5181 3.77051 19.5181C1.69317 19.5181 0 17.825 0 15.7476V13.2434C0 11.1661 1.69317 9.47292 3.77051 9.47292C4.60998 9.47292 5.2218 9.23104 5.46368 8.81842C5.70556 8.4058 5.60596 7.75129 5.17911 7.02565C4.68112 6.15772 4.55307 5.13328 4.80918 4.16575C5.06529 3.184 5.69133 2.37298 6.57349 1.87499L9.03499 0.466386C10.6428 -0.486913 12.7628 0.067992 13.7303 1.70425L13.9011 1.98882C14.7406 3.44011 15.8931 3.44011 16.7325 1.98882L16.889 1.71848C17.8566 0.067992 19.9766 -0.486913 21.5986 0.480614L24.0459 1.88922C24.9138 2.38721 25.5399 3.19823 25.8102 4.17998C26.0663 5.16174 25.9383 6.17195 25.4403 7.03988C25.0276 7.76552 24.9138 8.42002 25.1557 8.83265C25.3976 9.24527 26.0094 9.48715 26.8489 9.48715C28.9262 9.48715 30.6194 11.1803 30.6194 13.2577V15.7618C30.6194 17.8392 28.9262 19.5324 26.8489 19.5324C26.0094 19.5324 25.3976 19.7742 25.1557 20.1869C24.9138 20.5995 25.0134 21.254 25.4403 21.9796C25.9383 22.8476 26.0805 23.872 25.8102 24.8395C25.5541 25.8213 24.928 26.6323 24.0459 27.1303L21.5844 28.5389C21.0437 28.8377 20.4603 28.9942 19.8628 28.9942ZM15.2955 23.7297C16.5618 23.7297 17.7427 24.5265 18.5537 25.9351L18.7103 26.2054C18.881 26.5042 19.1656 26.7177 19.507 26.803C19.8485 26.8884 20.19 26.8457 20.4746 26.675L22.9361 25.2521C23.306 25.0387 23.5906 24.683 23.7044 24.2562C23.8182 23.8293 23.7613 23.3882 23.5479 23.0183C22.7369 21.6239 22.6373 20.1869 23.2633 19.0913C23.8894 17.9957 25.1842 17.3696 26.8062 17.3696C27.7168 17.3696 28.4424 16.644 28.4424 15.7334V13.2292C28.4424 12.3328 27.7168 11.5929 26.8062 11.5929C25.1842 11.5929 23.8894 10.9669 23.2633 9.87132C22.6373 8.77573 22.7369 7.33867 23.5479 5.94429C23.7613 5.57436 23.8182 5.13328 23.7044 4.70643C23.5906 4.27958 23.3202 3.9381 22.9503 3.71045L20.4888 2.30184C19.877 1.9319 19.066 2.14533 18.696 2.77138L18.5395 3.04171C17.7285 4.45032 16.5476 5.24711 15.2812 5.24711C14.0149 5.24711 12.834 4.45032 12.0229 3.04171L11.8664 2.75715C11.5107 2.15956 10.7139 1.94613 10.1021 2.30184L7.64062 3.72467C7.27068 3.9381 6.98611 4.29381 6.87229 4.72066C6.75846 5.14751 6.81537 5.58859 7.0288 5.95852C7.83981 7.3529 7.93941 8.78996 7.31336 9.88554C6.68732 10.9811 5.39254 11.6072 3.77051 11.6072C2.8599 11.6072 2.13425 12.3328 2.13425 13.2434V15.7476C2.13425 16.644 2.8599 17.3839 3.77051 17.3839C5.39254 17.3839 6.68732 18.0099 7.31336 19.1055C7.93941 20.2011 7.83981 21.6381 7.0288 23.0325C6.81537 23.4025 6.75846 23.8435 6.87229 24.2704C6.98611 24.6972 7.25645 25.0387 7.62639 25.2664L10.0879 26.675C10.3867 26.8599 10.7424 26.9026 11.0696 26.8173C11.4111 26.7319 11.6957 26.5042 11.8807 26.2054L12.0372 25.9351C12.8482 24.5407 14.0291 23.7297 15.2955 23.7297Z" fill="#292D32"/>
</svg>
