<svg width="30" height="34" viewBox="0 0 30 34" fill="none" xmlns="http://www.w3.org/2000/svg">
<path d="M19.6155 18.0001H8.84623C8.21546 18.0001 7.69238 17.477 7.69238 16.8462C7.69238 16.2155 8.21546 15.6924 8.84623 15.6924H19.6155C20.2462 15.6924 20.7693 16.2155 20.7693 16.8462C20.7693 17.477 20.2462 18.0001 19.6155 18.0001Z" fill="#16498C"/>
<path d="M15.5847 24.1544H8.84623C8.21546 24.1544 7.69238 23.6313 7.69238 23.0005C7.69238 22.3698 8.21546 21.8467 8.84623 21.8467H15.5847C16.2155 21.8467 16.7385 22.3698 16.7385 23.0005C16.7385 23.6313 16.2155 24.1544 15.5847 24.1544Z" fill="#16498C"/>
<path d="M18.077 8.46154H11.9232C10.4462 8.46154 7.69238 8.46154 7.69238 4.23077C7.69238 0 10.4462 0 11.9232 0H18.077C19.5539 0 22.3078 0 22.3078 4.23077C22.3078 5.70769 22.3078 8.46154 18.077 8.46154ZM11.9232 2.30769C10.4001 2.30769 10.0001 2.30769 10.0001 4.23077C10.0001 6.15385 10.4001 6.15385 11.9232 6.15385H18.077C20.0001 6.15385 20.0001 5.75385 20.0001 4.23077C20.0001 2.30769 19.6001 2.30769 18.077 2.30769H11.9232Z" fill="#16498C"/>
<path d="M19.6154 33.077H10.3846C1.73846 33.077 0 29.1078 0 22.6924V13.4617C0 6.44628 2.53846 3.44627 8.78462 3.1232C9.4 3.09243 9.96923 3.56935 10 4.21551C10.0308 4.86166 9.53846 5.38474 8.90769 5.41551C4.53846 5.66166 2.30769 6.96935 2.30769 13.4617V22.6924C2.30769 28.3847 3.43077 30.7693 10.3846 30.7693H19.6154C26.5692 30.7693 27.6923 28.3847 27.6923 22.6924V13.4617C27.6923 6.96935 25.4615 5.66166 21.0923 5.41551C20.4615 5.38474 19.9692 4.83089 20 4.20012C20.0308 3.56935 20.5846 3.07704 21.2154 3.10781C27.4615 3.44627 30 6.44627 30 13.4463V22.677C30 29.1078 28.2615 33.077 19.6154 33.077Z" fill="#16498C"/>
</svg>
