<svg width="34" height="32" viewBox="0 0 34 32" fill="none" xmlns="http://www.w3.org/2000/svg">
<path d="M21.6228 27.3483C20.6922 27.9787 19.5215 28.504 18.0957 28.9693L15.7242 29.7498C9.7657 31.6709 6.62881 30.0649 4.69264 24.1064L2.77148 18.1778C0.850327 12.2192 2.44128 9.0673 8.39987 7.14614L10.7713 6.36567C11.3867 6.17055 11.972 6.00545 12.5274 5.90039C12.0771 6.81594 11.7169 7.92661 11.4167 9.20238L9.94581 15.4912C8.47492 21.7649 10.4111 24.8568 16.6698 26.3427L19.1913 26.9431C20.0618 27.1532 20.8723 27.2883 21.6228 27.3483Z" stroke="#17498C" stroke-width="2.71607" stroke-linecap="round" stroke-linejoin="round"/>
<path d="M17.9912 11.0479L25.2706 12.894" stroke="#17498C" stroke-width="2.71607" stroke-linecap="round" stroke-linejoin="round"/>
<path d="M16.5195 16.8564L20.8722 17.9671" stroke="#17498C" stroke-width="2.71607" stroke-linecap="round" stroke-linejoin="round"/>
<path d="M30.4783 5.90016C32.0993 7.70125 32.3845 10.2828 31.529 13.915L30.0581 20.1888C28.7973 25.607 26.3058 27.7983 21.623 27.3481C20.8726 27.288 20.0621 27.153 19.1915 26.9428L16.67 26.3425C10.4112 24.8566 8.47506 21.7647 9.94594 15.4909L11.4168 9.20215C11.717 7.92638 12.0772 6.81572 12.5275 5.90016C14.2836 2.26798 17.2704 1.29239 22.2834 2.4781L24.7899 3.06346" stroke="#17498C" stroke-width="2.71607" stroke-linecap="round" stroke-linejoin="round"/>
</svg>
