<svg width="13" height="12" viewBox="0 0 13 12" fill="none" xmlns="http://www.w3.org/2000/svg">
<path d="M9.2417 12H2.77139C1.24042 12 0 10.754 0 9.22302V5.08269C0 4.32278 0.469349 3.36732 1.0728 2.89797L4.08445 0.551224C4.98963 -0.152797 6.43678 -0.186322 7.37548 0.472999L10.8285 2.89238C11.4935 3.35614 12.0131 4.35071 12.0131 5.16092V9.22861C12.0131 10.754 10.7727 12 9.2417 12ZM4.5985 1.21055L1.58685 3.55729C1.19013 3.87019 0.838123 4.5798 0.838123 5.08269V9.22302C0.838123 10.2902 1.70418 11.1619 2.77139 11.1619H9.2417C10.3089 11.1619 11.175 10.2958 11.175 9.22861V5.16092C11.175 4.6245 10.7894 3.88137 10.348 3.57964L6.89496 1.16026C6.25798 0.713261 5.20754 0.735611 4.5985 1.21055Z" fill="white"/>
<path d="M6.00646 9.76498C5.77738 9.76498 5.5874 9.575 5.5874 9.34592V7.66967C5.5874 7.44058 5.77738 7.25061 6.00646 7.25061C6.23555 7.25061 6.42553 7.44058 6.42553 7.66967V9.34592C6.42553 9.575 6.23555 9.76498 6.00646 9.76498Z" fill="white"/>
</svg>
