<svg width="30" height="27" viewBox="0 0 30 27" fill="none" xmlns="http://www.w3.org/2000/svg">
<g clip-path="url(#clip0_145_1021)">
<path d="M0.416518 26.6529C0.523241 26.6807 0.636624 26.6654 0.73209 26.6101C0.827556 26.5549 0.897412 26.4643 0.926518 26.3579C1.78485 23.1554 5.27318 22.3254 7.35818 21.8288C7.88068 21.7046 8.29318 21.6063 8.56152 21.4904C10.9365 20.4596 11.7107 18.8013 11.9424 17.5913C11.9561 17.5193 11.9507 17.4449 11.9265 17.3757C11.9024 17.3065 11.8604 17.2449 11.8049 17.1971C10.5682 16.1296 9.52485 14.5271 8.86652 12.6838C8.84795 12.6309 8.81873 12.5824 8.78068 12.5413C7.90985 11.5946 7.40985 10.5938 7.40985 9.79626C7.40985 9.33043 7.58568 9.01793 7.98152 8.7821C8.04081 8.74665 8.09036 8.69702 8.12571 8.63767C8.16106 8.57832 8.18109 8.51111 8.18402 8.4421C8.36819 4.1971 11.3915 0.85543 15.0999 0.833763L15.189 0.839596C18.9157 0.891263 21.9199 4.3046 22.0274 8.6096C22.0289 8.66844 22.0429 8.72629 22.0684 8.77931C22.094 8.83232 22.1306 8.87929 22.1757 8.9171C22.4365 9.13793 22.5582 9.41793 22.5582 9.79793C22.5582 10.4654 22.2024 11.2863 21.5574 12.1079C21.5266 12.1475 21.5029 12.192 21.4874 12.2396C20.8207 14.3529 19.624 16.2188 18.2057 17.3604C18.1469 17.4079 18.1021 17.4704 18.076 17.5412C18.0499 17.6121 18.0434 17.6887 18.0574 17.7629C18.289 18.9721 19.0632 20.6296 21.4382 21.6621C21.719 21.7838 22.1549 21.8788 22.7074 21.9979C24.7715 22.4446 28.2257 23.1938 29.0732 26.3579C29.0874 26.4108 29.1119 26.4603 29.1453 26.5037C29.1786 26.5471 29.2202 26.5835 29.2677 26.6108C29.3151 26.6381 29.3675 26.6558 29.4217 26.6629C29.476 26.67 29.5312 26.6663 29.584 26.6521C29.6369 26.6379 29.6864 26.6134 29.7298 26.58C29.7732 26.5466 29.8096 26.505 29.8369 26.4576C29.8642 26.4102 29.8819 26.3578 29.889 26.3035C29.8961 26.2493 29.8924 26.1941 29.8782 26.1413C28.899 22.4854 24.9857 21.6379 22.884 21.1829C22.3965 21.0771 21.9757 20.9863 21.7707 20.8963C20.2207 20.2229 19.2657 19.1971 18.9282 17.8421C20.3674 16.6063 21.5715 14.6996 22.2599 12.5613C22.9907 11.6113 23.3924 10.6329 23.3924 9.7971C23.3924 9.2396 23.2124 8.7746 22.8557 8.41126C22.6574 3.74126 19.3249 0.063763 15.189 0.00459635L15.0649 0.00292969C11.004 0.0245964 7.65735 3.60543 7.36485 8.1946C6.84318 8.57793 6.57818 9.11543 6.57818 9.79793C6.57818 10.7838 7.13568 11.9629 8.11152 13.0446C8.78568 14.8971 9.83068 16.5246 11.0749 17.6638C10.739 19.0238 9.78319 20.0529 8.22985 20.7271C8.02902 20.8146 7.62902 20.9104 7.16568 21.0204C5.04818 21.5238 1.10818 22.4613 0.121518 26.1429C0.0930236 26.2497 0.108094 26.3634 0.163415 26.459C0.218736 26.5547 0.309777 26.6244 0.416518 26.6529Z" fill="#16498C"/>
</g>
<defs>
<clipPath id="clip0_145_1021">
<rect width="30" height="26.6667" fill="white"/>
</clipPath>
</defs>
</svg>
