<svg width="30" height="27" viewBox="0 0 30 27" fill="none" xmlns="http://www.w3.org/2000/svg">
<g clip-path="url(#clip0_145_1749)">
<path d="M18.5165 17.272C18.4514 17.2631 18.3851 17.2702 18.3234 17.2927C18.2617 17.3152 18.2064 17.3524 18.1623 17.4011C18.1175 17.449 18.0846 17.5068 18.0663 17.5698C18.0481 17.6328 18.045 17.6992 18.0573 17.7636C18.2873 18.972 19.0615 20.6303 21.4381 21.6628C21.7198 21.7845 22.1548 21.8795 22.7065 21.9986C24.7715 22.4453 28.2248 23.1936 29.0731 26.3586C29.0874 26.4115 29.1119 26.4611 29.1453 26.5046C29.1787 26.548 29.2203 26.5844 29.2678 26.6118C29.3152 26.6391 29.3676 26.6569 29.422 26.664C29.4763 26.6711 29.5315 26.6674 29.5844 26.6532C29.6373 26.639 29.6869 26.6145 29.7303 26.5811C29.7738 26.5477 29.8102 26.5061 29.8376 26.4586C29.8649 26.4111 29.8827 26.3587 29.8898 26.3044C29.8969 26.2501 29.8932 26.1949 29.879 26.142C28.8981 22.4861 24.9856 21.6386 22.8831 21.1836C22.3965 21.0778 21.9756 20.987 21.7698 20.897C20.3415 20.277 19.419 19.357 19.019 18.1586C22.9873 18.4536 24.784 16.8728 24.8631 16.8011C24.912 16.7569 24.9496 16.7018 24.973 16.6402C24.9964 16.5787 25.0048 16.5124 24.9977 16.447C24.9905 16.3815 24.9679 16.3187 24.9318 16.2637C24.8957 16.2086 24.847 16.1629 24.7898 16.1303C22.4998 14.822 22.4998 10.3011 22.4998 8.59862C22.4998 3.83779 19.2931 0.0636198 15.1823 0.00445312C15.1432 0.0031497 15.104 0.00231631 15.0648 0.00195312C10.894 0.0252865 7.49981 3.80362 7.49981 8.42529C7.49981 10.1278 7.49981 14.6495 5.20981 15.957C5.15078 15.9912 5.10102 16.0394 5.06485 16.0973C5.02868 16.1552 5.00719 16.2211 5.00227 16.2892C4.99734 16.3572 5.00912 16.4255 5.03657 16.488C5.06403 16.5505 5.10634 16.6054 5.15981 16.6478C5.27481 16.737 7.81648 18.682 10.944 18.0911C10.5256 19.2395 9.61565 20.1228 8.22898 20.7253C8.02815 20.8128 7.62815 20.9086 7.16481 21.0186C5.04815 21.522 1.10731 22.4595 0.120647 26.1411C0.106475 26.194 0.102864 26.2492 0.110019 26.3035C0.117175 26.3578 0.134957 26.4102 0.16235 26.4576C0.217673 26.5534 0.308787 26.6233 0.415647 26.652C0.522507 26.6806 0.636361 26.6656 0.73216 26.6103C0.82796 26.5549 0.897859 26.4638 0.92648 26.357C1.78398 23.1536 5.27398 22.3245 7.35815 21.8278C7.88065 21.7036 8.29315 21.6053 8.56148 21.4895C10.9381 20.457 11.7115 18.7986 11.9423 17.5903C11.956 17.5195 11.951 17.4464 11.9278 17.3781C11.9045 17.3098 11.8639 17.2488 11.8098 17.2011C11.7562 17.153 11.6909 17.1197 11.6205 17.1045C11.55 17.0893 11.4769 17.0927 11.4081 17.1145C9.15231 17.8245 7.06815 16.8478 6.15731 16.3061C8.33315 14.4845 8.33315 10.292 8.33315 8.42529C8.33315 4.26112 11.3548 0.85612 15.0998 0.83362L15.1881 0.83862C18.8815 0.89112 21.6665 4.22695 21.6665 8.59862C21.6665 10.4661 21.6665 14.6678 23.8515 16.4895C23.099 16.9195 21.3831 17.6153 18.5165 17.272Z" fill="white"/>
</g>
<defs>
<clipPath id="clip0_145_1749">
<rect width="30" height="26.6667" fill="white"/>
</clipPath>
</defs>
</svg>
