<svg width="30" height="27" viewBox="0 0 30 27" fill="none" xmlns="http://www.w3.org/2000/svg">
<g clip-path="url(#clip0_140_1360)">
<path d="M18.5165 17.2715C18.4514 17.2626 18.3851 17.2697 18.3234 17.2922C18.2617 17.3147 18.2064 17.3519 18.1623 17.4006C18.1175 17.4485 18.0846 17.5063 18.0663 17.5693C18.0481 17.6323 18.045 17.6987 18.0573 17.7631C18.2873 18.9715 19.0615 20.6298 21.4381 21.6623C21.7198 21.784 22.1548 21.879 22.7065 21.9981C24.7715 22.4448 28.2248 23.1931 29.0731 26.3581C29.0874 26.411 29.1119 26.4606 29.1453 26.5041C29.1787 26.5475 29.2203 26.584 29.2678 26.6113C29.3152 26.6387 29.3676 26.6564 29.422 26.6635C29.4763 26.6706 29.5315 26.6669 29.5844 26.6527C29.6373 26.6385 29.6869 26.614 29.7303 26.5806C29.7738 26.5472 29.8102 26.5056 29.8376 26.4581C29.8649 26.4106 29.8827 26.3582 29.8898 26.3039C29.8969 26.2496 29.8932 26.1944 29.879 26.1415C28.8981 22.4856 24.9856 21.6381 22.8831 21.1831C22.3965 21.0773 21.9756 20.9865 21.7698 20.8965C20.3415 20.2765 19.419 19.3565 19.019 18.1581C22.9873 18.4531 24.784 16.8723 24.8631 16.8006C24.912 16.7564 24.9496 16.7013 24.973 16.6397C24.9964 16.5782 25.0048 16.512 24.9977 16.4465C24.9905 16.381 24.9679 16.3182 24.9318 16.2632C24.8957 16.2081 24.847 16.1624 24.7898 16.1298C22.4998 14.8215 22.4998 10.3006 22.4998 8.59813C22.4998 3.8373 19.2931 0.0631315 15.1823 0.00396484C15.1432 0.00266142 15.104 0.00182802 15.0648 0.00146484C10.894 0.0247982 7.49981 3.80313 7.49981 8.4248C7.49981 10.1273 7.49981 14.649 5.20981 15.9565C5.15078 15.9908 5.10102 16.0389 5.06485 16.0968C5.02868 16.1547 5.00719 16.2206 5.00227 16.2887C4.99734 16.3568 5.00912 16.425 5.03657 16.4875C5.06403 16.55 5.10634 16.6049 5.15981 16.6473C5.27481 16.7365 7.81648 18.6815 10.944 18.0906C10.5256 19.239 9.61565 20.1223 8.22898 20.7248C8.02815 20.8123 7.62815 20.9081 7.16481 21.0181C5.04815 21.5215 1.10731 22.459 0.120647 26.1406C0.106475 26.1935 0.102864 26.2487 0.110019 26.303C0.117175 26.3573 0.134957 26.4097 0.16235 26.4571C0.217673 26.5529 0.308787 26.6228 0.415647 26.6515C0.522507 26.6801 0.636361 26.6651 0.73216 26.6098C0.82796 26.5544 0.897859 26.4633 0.92648 26.3565C1.78398 23.1531 5.27398 22.324 7.35815 21.8273C7.88065 21.7031 8.29315 21.6048 8.56148 21.489C10.9381 20.4565 11.7115 18.7981 11.9423 17.5898C11.956 17.519 11.951 17.4459 11.9278 17.3776C11.9045 17.3094 11.8639 17.2484 11.8098 17.2006C11.7562 17.1525 11.6909 17.1192 11.6205 17.104C11.55 17.0888 11.4769 17.0922 11.4081 17.114C9.15231 17.824 7.06815 16.8473 6.15731 16.3056C8.33315 14.484 8.33315 10.2915 8.33315 8.4248C8.33315 4.26063 11.3548 0.855632 15.0998 0.833131L15.1881 0.838132C18.8815 0.890632 21.6665 4.22646 21.6665 8.59813C21.6665 10.4656 21.6665 14.6673 23.8515 16.489C23.099 16.919 21.3831 17.6148 18.5165 17.2715Z" fill="white"/>
</g>
<defs>
<clipPath id="clip0_140_1360">
<rect width="30" height="26.6667" fill="white"/>
</clipPath>
</defs>
</svg>
