<svg width="30" height="27" viewBox="0 0 30 27" fill="none" xmlns="http://www.w3.org/2000/svg">
<g clip-path="url(#clip0_140_1355)">
<path d="M0.416518 26.6524C0.523241 26.6803 0.636624 26.6649 0.73209 26.6097C0.827556 26.5544 0.897412 26.4638 0.926518 26.3574C1.78485 23.1549 5.27318 22.3249 7.35818 21.8283C7.88068 21.7041 8.29318 21.6058 8.56152 21.4899C10.9365 20.4591 11.7107 18.8008 11.9424 17.5908C11.9561 17.5188 11.9507 17.4444 11.9265 17.3752C11.9024 17.306 11.8604 17.2444 11.8049 17.1966C10.5682 16.1291 9.52485 14.5266 8.86652 12.6833C8.84795 12.6304 8.81873 12.5819 8.78068 12.5408C7.90985 11.5941 7.40985 10.5933 7.40985 9.79577C7.40985 9.32994 7.58568 9.01744 7.98152 8.78161C8.04081 8.74616 8.09036 8.69653 8.12571 8.63718C8.16106 8.57783 8.18109 8.51062 8.18402 8.44161C8.36819 4.19661 11.3915 0.854941 15.0999 0.833275L15.189 0.839108C18.9157 0.890775 21.9199 4.30411 22.0274 8.60911C22.0289 8.66795 22.0429 8.7258 22.0684 8.77882C22.094 8.83183 22.1306 8.8788 22.1757 8.91661C22.4365 9.13744 22.5582 9.41744 22.5582 9.79744C22.5582 10.4649 22.2024 11.2858 21.5574 12.1074C21.5266 12.147 21.5029 12.1915 21.4874 12.2391C20.8207 14.3524 19.624 16.2183 18.2057 17.3599C18.1469 17.4074 18.1021 17.4699 18.076 17.5407C18.0499 17.6116 18.0434 17.6882 18.0574 17.7624C18.289 18.9716 19.0632 20.6291 21.4382 21.6616C21.719 21.7833 22.1549 21.8783 22.7074 21.9974C24.7715 22.4441 28.2257 23.1933 29.0732 26.3574C29.0874 26.4103 29.1119 26.4598 29.1453 26.5032C29.1786 26.5466 29.2202 26.583 29.2677 26.6103C29.3151 26.6376 29.3675 26.6553 29.4217 26.6624C29.476 26.6695 29.5312 26.6658 29.584 26.6516C29.6369 26.6374 29.6864 26.6129 29.7298 26.5795C29.7732 26.5461 29.8096 26.5046 29.8369 26.4571C29.8642 26.4097 29.8819 26.3573 29.889 26.3031C29.8961 26.2488 29.8924 26.1936 29.8782 26.1408C28.899 22.4849 24.9857 21.6374 22.884 21.1824C22.3965 21.0766 21.9757 20.9858 21.7707 20.8958C20.2207 20.2224 19.2657 19.1966 18.9282 17.8416C20.3674 16.6058 21.5715 14.6991 22.2599 12.5608C22.9907 11.6108 23.3924 10.6324 23.3924 9.79661C23.3924 9.23911 23.2124 8.77411 22.8557 8.41077C22.6574 3.74077 19.3249 0.0632747 15.189 0.00410807L15.0649 0.00244141C11.004 0.0241081 7.65735 3.60494 7.36485 8.19411C6.84318 8.57744 6.57818 9.11494 6.57818 9.79744C6.57818 10.7833 7.13568 11.9624 8.11152 13.0441C8.78568 14.8966 9.83068 16.5241 11.0749 17.6633C10.739 19.0233 9.78319 20.0524 8.22985 20.7266C8.02902 20.8141 7.62902 20.9099 7.16568 21.0199C5.04818 21.5233 1.10818 22.4608 0.121518 26.1424C0.0930236 26.2492 0.108094 26.3629 0.163415 26.4585C0.218736 26.5542 0.309777 26.6239 0.416518 26.6524Z" fill="#16498C"/>
</g>
<defs>
<clipPath id="clip0_140_1355">
<rect width="30" height="26.6667" fill="white"/>
</clipPath>
</defs>
</svg>
